# xmcd
#
# Track frame offsets:
#	150
#	24250
#	38815
#	55320
#	71322
#	95502
#	108815
#	135232
#	156420
#	178830
#	201415
#
# Disc length: 2917 seconds
# Revision: 0
# Processed by: cddbd v1.5.2PL0 Copyright (c) Steve Scherf et al.
# Submitted via: dBpowerAMP V12.0
#
DISCID=8e0b630b
DTITLE=The Hitman Blues Band - Blues Enough
DYEAR=2012
DGENRE=Blues
TTITLE0=Blues Enough
TTITLE1=Sam The Bluzman
TTITLE2=Fishering Where The Fish Are
TTITLE3=Backhand Drive
TTITLE4=Every Piece Of Me
TTITLE5=Everything You Do
TTITLE6=Streets Of Downtown
TTITLE7=Life's Too Short
TTITLE8=Better Class Of Bums
TTITLE9=Deaf, Dumb and Blind
TTITLE10=Tough Street
EXTD=
EXTT0=
EXTT1=
EXTT2=
EXTT3=
EXTT4=
EXTT5=
EXTT6=
EXTT7=
EXTT8=
EXTT9=
EXTT10=
PLAYORDER=
